<?xml version="1.0" encoding="UTF-8" standalone="no"?>
<!DOCTYPE svg PUBLIC "-//W3C//DTD SVG 1.1//EN"
 "http://www.w3.org/Graphics/SVG/1.1/DTD/svg11.dtd">
<!-- Generated by graphviz version 2.40.1 (20161225.0304)
 -->
<!-- Title: %3 Pages: 1 -->
<svg width="272pt" height="133pt"
 viewBox="0.00 0.00 272.00 133.00" xmlns="http://www.w3.org/2000/svg" xmlns:xlink="http://www.w3.org/1999/xlink">
<g id="graph0" class="graph" transform="scale(1 1) rotate(0) translate(4 129)">
<title>%3</title>
<polygon fill="#ffffff" stroke="transparent" points="-4,4 -4,-129 268,-129 268,4 -4,4"/>
<!-- beta -->
<g id="node1" class="node">
<title>beta</title>
<ellipse fill="#ffffff" stroke="#000000" cx="27" cy="-98.5" rx="27" ry="18"/>
<text text-anchor="middle" x="27" y="-94.8" font-family="Times,serif" font-size="14.00" fill="#000000">beta</text>
</g>
<!-- y -->
<g id="node3" class="node">
<title>y</title>
<ellipse fill="#c0c0c0" stroke="#000000" cx="65" cy="-18" rx="27" ry="18"/>
<text text-anchor="middle" x="65" y="-14.3" font-family="Times,serif" font-size="14.00" fill="#000000">y</text>
</g>
<!-- beta&#45;&gt;y -->
<g id="edge1" class="edge">
<title>beta&#45;&gt;y</title>
<path fill="none" stroke="#000000" d="M35.2454,-81.0327C40.2748,-70.3783 46.8033,-56.5484 52.4631,-44.5585"/>
<polygon fill="#000000" stroke="#000000" points="55.6669,-45.9704 56.7707,-35.4332 49.3367,-42.9822 55.6669,-45.9704"/>
</g>
<!-- alpha -->
<g id="node2" class="node">
<title>alpha</title>
<ellipse fill="#ffffff" stroke="#000000" cx="103" cy="-98.5" rx="30.5947" ry="18"/>
<text text-anchor="middle" x="103" y="-94.8" font-family="Times,serif" font-size="14.00" fill="#000000">alpha</text>
</g>
<!-- alpha&#45;&gt;y -->
<g id="edge2" class="edge">
<title>alpha&#45;&gt;y</title>
<path fill="none" stroke="#000000" d="M94.7546,-81.0327C89.7252,-70.3783 83.1967,-56.5484 77.5369,-44.5585"/>
<polygon fill="#000000" stroke="#000000" points="80.6633,-42.9822 73.2293,-35.4332 74.3331,-45.9704 80.6633,-42.9822"/>
</g>
<!-- distribution_description_node -->
<g id="node4" class="node">
<title>distribution_description_node</title>
<text text-anchor="start" x="160" y="-109.8" font-family="Times,serif" font-size="14.00" fill="#000000">beta ~ Uniform</text>
<text text-anchor="start" x="160" y="-94.8" font-family="Times,serif" font-size="14.00" fill="#000000">alpha ~ Uniform</text>
<text text-anchor="start" x="160" y="-79.8" font-family="Times,serif" font-size="14.00" fill="#000000">y ~ Normal</text>
</g>
</g>
</svg>