<?xml version="1.0" encoding="UTF-8" standalone="no"?>
<!DOCTYPE svg PUBLIC "-//W3C//DTD SVG 1.1//EN"
 "http://www.w3.org/Graphics/SVG/1.1/DTD/svg11.dtd">
<!-- Generated by graphviz version 2.40.1 (20161225.0304)
 -->
<!-- Title: %3 Pages: 1 -->
<svg width="578pt" height="202pt"
 viewBox="0.00 0.00 577.50 202.00" xmlns="http://www.w3.org/2000/svg" xmlns:xlink="http://www.w3.org/1999/xlink">
<g id="graph0" class="graph" transform="scale(1 1) rotate(0) translate(4 198)">
<title>%3</title>
<polygon fill="#ffffff" stroke="transparent" points="-4,4 -4,-198 573.5,-198 573.5,4 -4,4"/>
<g id="clust1" class="cluster">
<title>cluster_i=1..n</title>
<polygon fill="none" stroke="#000000" points="64,-8 64,-178.5 168,-178.5 168,-8 64,-8"/>
<text text-anchor="middle" x="142.5" y="-15.8" font-family="Times,serif" font-size="14.00" fill="#000000">i=1..n</text>
</g>
<!-- beta -->
<g id="node1" class="node">
<title>beta</title>
<ellipse fill="#ffffff" stroke="#000000" cx="27" cy="-152.5" rx="27" ry="18"/>
<text text-anchor="middle" x="27" y="-148.8" font-family="Times,serif" font-size="14.00" fill="#000000">beta</text>
</g>
<!-- y -->
<g id="node5" class="node">
<title>y</title>
<ellipse fill="#c0c0c0" stroke="#000000" cx="124" cy="-57" rx="27" ry="18"/>
<text text-anchor="middle" x="124" y="-53.3" font-family="Times,serif" font-size="14.00" fill="#000000">y</text>
</g>
<!-- beta&#45;&gt;y -->
<g id="edge1" class="edge">
<title>beta&#45;&gt;y</title>
<path fill="none" stroke="#000000" d="M38.832,-136.1155C44.8293,-128.2173 52.4318,-118.7914 60,-111 71.769,-98.8839 86.0383,-86.6425 98.114,-76.8853"/>
<polygon fill="#000000" stroke="#000000" points="100.4192,-79.5239 106.066,-70.5592 96.0613,-74.0459 100.4192,-79.5239"/>
</g>
<!-- alpha -->
<g id="node2" class="node">
<title>alpha</title>
<ellipse fill="#ffffff" stroke="#000000" cx="209" cy="-152.5" rx="30.5947" ry="18"/>
<text text-anchor="middle" x="209" y="-148.8" font-family="Times,serif" font-size="14.00" fill="#000000">alpha</text>
</g>
<!-- alpha&#45;&gt;y -->
<g id="edge2" class="edge">
<title>alpha&#45;&gt;y</title>
<path fill="none" stroke="#000000" d="M194.5809,-136.2997C180.8621,-120.8862 160.0775,-97.5341 144.6117,-80.1578"/>
<polygon fill="#000000" stroke="#000000" points="147.1875,-77.7874 137.9245,-72.6446 141.9586,-82.4414 147.1875,-77.7874"/>
</g>
<!-- sigma_y_out -->
<g id="node3" class="node">
<title>sigma_y_out</title>
<ellipse fill="#ffffff" stroke="#000000" cx="317" cy="-152.5" rx="59.5901" ry="18"/>
<text text-anchor="middle" x="317" y="-148.8" font-family="Times,serif" font-size="14.00" fill="#000000">sigma_y_out</text>
</g>
<!-- sigma_y_out&#45;&gt;y -->
<g id="edge3" class="edge">
<title>sigma_y_out&#45;&gt;y</title>
<path fill="none" stroke="#000000" d="M291.9764,-136.0682C279.3355,-128.0684 263.6145,-118.5689 249,-111 218.6081,-95.2598 182.6115,-80.0516 157.0705,-69.8081"/>
<polygon fill="#000000" stroke="#000000" points="158.0753,-66.4412 147.4896,-66.0016 155.4907,-72.9466 158.0753,-66.4412"/>
</g>
<!-- p_outlier -->
<g id="node4" class="node">
<title>p_outlier</title>
<ellipse fill="#ffffff" stroke="#000000" cx="116" cy="-152.5" rx="44.393" ry="18"/>
<text text-anchor="middle" x="116" y="-148.8" font-family="Times,serif" font-size="14.00" fill="#000000">p_outlier</text>
</g>
<!-- p_outlier&#45;&gt;y -->
<g id="edge4" class="edge">
<title>p_outlier&#45;&gt;y</title>
<path fill="none" stroke="#000000" d="M117.5425,-134.0866C118.7009,-120.2585 120.3082,-101.0711 121.6294,-85.2988"/>
<polygon fill="#000000" stroke="#000000" points="125.1423,-85.2903 122.4894,-75.033 118.1667,-84.7059 125.1423,-85.2903"/>
</g>
<!-- distribution_description_node -->
<g id="node6" class="node">
<title>distribution_description_node</title>
<text text-anchor="start" x="402.5" y="-178.8" font-family="Times,serif" font-size="14.00" fill="#000000">beta ~ Uniform</text>
<text text-anchor="start" x="402.5" y="-163.8" font-family="Times,serif" font-size="14.00" fill="#000000">alpha ~ Uniform</text>
<text text-anchor="start" x="402.5" y="-148.8" font-family="Times,serif" font-size="14.00" fill="#000000">sigma_y_out ~ HalfNormal</text>
<text text-anchor="start" x="402.5" y="-133.8" font-family="Times,serif" font-size="14.00" fill="#000000">p_outlier ~ Uniform</text>
<text text-anchor="start" x="402.5" y="-118.8" font-family="Times,serif" font-size="14.00" fill="#000000">y ~ MixtureSameFamily</text>
</g>
</g>
</svg>