<?xml version="1.0" encoding="UTF-8" standalone="no"?>
<!DOCTYPE svg PUBLIC "-//W3C//DTD SVG 1.1//EN"
 "http://www.w3.org/Graphics/SVG/1.1/DTD/svg11.dtd">
<!-- Generated by graphviz version 2.40.1 (20161225.0304)
 -->
<!-- Title: %3 Pages: 1 -->
<svg width="266pt" height="172pt"
 viewBox="0.00 0.00 266.00 172.00" xmlns="http://www.w3.org/2000/svg" xmlns:xlink="http://www.w3.org/1999/xlink">
<g id="graph0" class="graph" transform="scale(1 1) rotate(0) translate(4 168)">
<title>%3</title>
<polygon fill="#ffffff" stroke="transparent" points="-4,4 -4,-168 262,-168 262,4 -4,4"/>
<g id="clust1" class="cluster">
<title>cluster_i=1..n</title>
<polygon fill="none" stroke="#000000" points="30,-8 30,-83 100,-83 100,-8 30,-8"/>
<text text-anchor="middle" x="74.5" y="-15.8" font-family="Times,serif" font-size="14.00" fill="#000000">i=1..n</text>
</g>
<!-- beta -->
<g id="node1" class="node">
<title>beta</title>
<ellipse fill="#ffffff" stroke="#000000" cx="27" cy="-137.5" rx="27" ry="18"/>
<text text-anchor="middle" x="27" y="-133.8" font-family="Times,serif" font-size="14.00" fill="#000000">beta</text>
</g>
<!-- y -->
<g id="node3" class="node">
<title>y</title>
<ellipse fill="#c0c0c0" stroke="#000000" cx="65" cy="-57" rx="27" ry="18"/>
<text text-anchor="middle" x="65" y="-53.3" font-family="Times,serif" font-size="14.00" fill="#000000">y</text>
</g>
<!-- beta&#45;&gt;y -->
<g id="edge1" class="edge">
<title>beta&#45;&gt;y</title>
<path fill="none" stroke="#000000" d="M35.2454,-120.0327C40.2748,-109.3783 46.8033,-95.5484 52.4631,-83.5585"/>
<polygon fill="#000000" stroke="#000000" points="55.6669,-84.9704 56.7707,-74.4332 49.3367,-81.9822 55.6669,-84.9704"/>
</g>
<!-- alpha -->
<g id="node2" class="node">
<title>alpha</title>
<ellipse fill="#ffffff" stroke="#000000" cx="103" cy="-137.5" rx="30.5947" ry="18"/>
<text text-anchor="middle" x="103" y="-133.8" font-family="Times,serif" font-size="14.00" fill="#000000">alpha</text>
</g>
<!-- alpha&#45;&gt;y -->
<g id="edge2" class="edge">
<title>alpha&#45;&gt;y</title>
<path fill="none" stroke="#000000" d="M94.7546,-120.0327C89.7252,-109.3783 83.1967,-95.5484 77.5369,-83.5585"/>
<polygon fill="#000000" stroke="#000000" points="80.6633,-81.9822 73.2293,-74.4332 74.3331,-84.9704 80.6633,-81.9822"/>
</g>
<!-- distribution_description_node -->
<g id="node4" class="node">
<title>distribution_description_node</title>
<text text-anchor="start" x="160" y="-148.8" font-family="Times,serif" font-size="14.00" fill="#000000">beta ~ Normal</text>
<text text-anchor="start" x="160" y="-133.8" font-family="Times,serif" font-size="14.00" fill="#000000">alpha ~ Normal</text>
<text text-anchor="start" x="160" y="-118.8" font-family="Times,serif" font-size="14.00" fill="#000000">y ~ Normal</text>
</g>
</g>
</svg>