<?xml version="1.0" encoding="UTF-8" standalone="no"?>
<!DOCTYPE svg PUBLIC "-//W3C//DTD SVG 1.1//EN"
 "http://www.w3.org/Graphics/SVG/1.1/DTD/svg11.dtd">
<!-- Generated by graphviz version 2.40.1 (20161225.0304)
 -->
<!-- Title: %3 Pages: 1 -->
<svg width="385pt" height="289pt"
 viewBox="0.00 0.00 384.79 289.00" xmlns="http://www.w3.org/2000/svg" xmlns:xlink="http://www.w3.org/1999/xlink">
<g id="graph0" class="graph" transform="scale(1 1) rotate(0) translate(4 285)">
<title>%3</title>
<polygon fill="#ffffff" stroke="transparent" points="-4,4 -4,-285 380.7947,-285 380.7947,4 -4,4"/>
<g id="clust1" class="cluster">
<title>cluster_i=1..n</title>
<polygon fill="none" stroke="#000000" points="64,-8 64,-155 168,-155 168,-8 64,-8"/>
<text text-anchor="middle" x="142.5" y="-15.8" font-family="Times,serif" font-size="14.00" fill="#000000">i=1..n</text>
</g>
<!-- beta -->
<g id="node1" class="node">
<title>beta</title>
<ellipse fill="#ffffff" stroke="#000000" cx="27" cy="-129" rx="27" ry="18"/>
<text text-anchor="middle" x="27" y="-125.3" font-family="Times,serif" font-size="14.00" fill="#000000">beta</text>
</g>
<!-- y -->
<g id="node6" class="node">
<title>y</title>
<ellipse fill="#c0c0c0" stroke="#000000" cx="124" cy="-57" rx="27" ry="18"/>
<text text-anchor="middle" x="124" y="-53.3" font-family="Times,serif" font-size="14.00" fill="#000000">y</text>
</g>
<!-- beta&#45;&gt;y -->
<g id="edge2" class="edge">
<title>beta&#45;&gt;y</title>
<path fill="none" stroke="#000000" d="M45.245,-115.4574C60.0128,-104.4956 81.0118,-88.9088 97.6128,-76.5864"/>
<polygon fill="#000000" stroke="#000000" points="99.8932,-79.2526 105.8369,-70.4819 95.7211,-73.6318 99.8932,-79.2526"/>
</g>
<!-- alpha -->
<g id="node2" class="node">
<title>alpha</title>
<ellipse fill="#ffffff" stroke="#000000" cx="209" cy="-129" rx="30.5947" ry="18"/>
<text text-anchor="middle" x="209" y="-125.3" font-family="Times,serif" font-size="14.00" fill="#000000">alpha</text>
</g>
<!-- alpha&#45;&gt;y -->
<g id="edge3" class="edge">
<title>alpha&#45;&gt;y</title>
<path fill="none" stroke="#000000" d="M191.3879,-114.0816C178.9493,-103.5453 162.1192,-89.2892 148.3903,-77.66"/>
<polygon fill="#000000" stroke="#000000" points="150.6146,-74.9573 140.7219,-71.1645 146.0902,-80.2986 150.6146,-74.9573"/>
</g>
<!-- frac_outliers -->
<g id="node3" class="node">
<title>frac_outliers</title>
<ellipse fill="#ffffff" stroke="#000000" cx="116" cy="-232" rx="56.59" ry="18"/>
<text text-anchor="middle" x="116" y="-228.3" font-family="Times,serif" font-size="14.00" fill="#000000">frac_outliers</text>
</g>
<!-- p_outlier -->
<g id="node5" class="node">
<title>p_outlier</title>
<ellipse fill="#ffffff" stroke="#000000" cx="116" cy="-129" rx="44.393" ry="18"/>
<text text-anchor="middle" x="116" y="-125.3" font-family="Times,serif" font-size="14.00" fill="#000000">p_outlier</text>
</g>
<!-- frac_outliers&#45;&gt;p_outlier -->
<g id="edge1" class="edge">
<title>frac_outliers&#45;&gt;p_outlier</title>
<path fill="none" stroke="#000000" d="M116,-213.5857C116,-197.9868 116,-175.365 116,-157.4401"/>
<polygon fill="#000000" stroke="#000000" points="119.5001,-157.2549 116,-147.2549 112.5001,-157.2549 119.5001,-157.2549"/>
</g>
<!-- sigma_y_out -->
<g id="node4" class="node">
<title>sigma_y_out</title>
<ellipse fill="#ffffff" stroke="#000000" cx="317" cy="-129" rx="59.5901" ry="18"/>
<text text-anchor="middle" x="317" y="-125.3" font-family="Times,serif" font-size="14.00" fill="#000000">sigma_y_out</text>
</g>
<!-- sigma_y_out&#45;&gt;y -->
<g id="edge4" class="edge">
<title>sigma_y_out&#45;&gt;y</title>
<path fill="none" stroke="#000000" d="M279.3295,-114.9468C243.7849,-101.6866 191.0206,-82.0025 157.0667,-69.3358"/>
<polygon fill="#000000" stroke="#000000" points="158.1888,-66.0188 147.5962,-65.8027 155.7421,-72.5773 158.1888,-66.0188"/>
</g>
<!-- p_outlier&#45;&gt;y -->
<g id="edge5" class="edge">
<title>p_outlier&#45;&gt;y</title>
<path fill="none" stroke="#000000" d="M118.0187,-110.8314C118.8743,-103.131 119.8917,-93.9743 120.8426,-85.4166"/>
<polygon fill="#000000" stroke="#000000" points="124.3283,-85.7386 121.9541,-75.4133 117.3711,-84.9656 124.3283,-85.7386"/>
</g>
<!-- distribution_description_node -->
<g id="node7" class="node">
<title>distribution_description_node</title>
<text text-anchor="start" x="198.5" y="-265.8" font-family="Times,serif" font-size="14.00" fill="#000000">beta ~ Uniform</text>
<text text-anchor="start" x="198.5" y="-250.8" font-family="Times,serif" font-size="14.00" fill="#000000">alpha ~ Uniform</text>
<text text-anchor="start" x="198.5" y="-235.8" font-family="Times,serif" font-size="14.00" fill="#000000">frac_outliers ~ Uniform</text>
<text text-anchor="start" x="198.5" y="-220.8" font-family="Times,serif" font-size="14.00" fill="#000000">sigma_y_out ~ HalfNormal</text>
<text text-anchor="start" x="198.5" y="-205.8" font-family="Times,serif" font-size="14.00" fill="#000000">p_outlier ~ BernoulliProbs</text>
<text text-anchor="start" x="198.5" y="-190.8" font-family="Times,serif" font-size="14.00" fill="#000000">y ~ MixtureSameFamily</text>
</g>
</g>
</svg>